<svg version="1.1" id="Layer_1" xmlns="http://www.w3.org/2000/svg" xmlns:xlink="http://www.w3.org/1999/xlink" x="0px" y="0px"
	 width="100%" viewBox="0 0 198 198" enable-background="new 0 0 198 198" xml:space="preserve">
<path fill="#101E38" opacity="1.000000" stroke="none" 
	d="
M142.000000,199.000000 
	C94.666672,199.000000 47.833340,199.000000 1.000006,199.000000 
	C1.000004,133.000000 1.000004,67.000015 1.000002,1.000015 
	C66.999992,1.000010 132.999985,1.000010 198.999969,1.000005 
	C198.999985,66.999985 198.999985,132.999969 199.000000,198.999969 
	C180.166672,199.000000 161.333328,199.000000 142.000000,199.000000 
M143.643539,144.095215 
	C144.423355,144.387939 145.203156,144.680664 146.743347,144.968155 
	C153.912308,144.056122 161.081284,143.144073 168.250244,142.232040 
	C168.403900,141.786560 168.557541,141.341064 168.711197,140.895584 
	C167.626221,139.968857 166.625290,138.378922 165.441864,138.228912 
	C159.992905,137.538269 154.493042,137.249176 148.776291,136.797470 
	C152.420654,133.454605 156.128128,130.053833 160.731674,125.831139 
	C160.545700,123.431396 163.059006,118.427063 158.184433,116.699020 
	C158.007751,114.394379 158.369217,112.651657 157.699570,111.518074 
	C155.119904,107.151299 150.399460,105.834564 145.052002,106.194687 
	C139.872726,106.543495 134.619873,105.606400 129.394882,105.526672 
	C124.631165,105.454002 119.789780,105.360840 115.137505,106.168678 
	C113.717094,106.415321 112.809395,109.614677 111.550720,111.649582 
	C110.985519,111.300400 110.331390,111.075073 109.934166,110.623680 
	C105.065750,105.091255 101.980576,104.783104 96.087013,108.848907 
	C95.212212,109.452408 93.400642,108.943123 92.097725,108.632736 
	C88.826454,107.853477 85.636200,106.339005 82.345444,106.113976 
	C73.916092,105.537575 65.447273,105.307571 57.000298,105.415260 
	C55.314312,105.436752 53.655304,107.574188 51.258934,108.899902 
	C50.519188,108.858345 49.779442,108.816795 48.800678,108.188057 
	C45.239227,105.957253 42.416695,106.823624 42.218559,110.682732 
	C41.854633,117.770813 42.063564,124.888313 41.172176,131.996216 
	C38.702763,132.158234 36.233349,132.320267 33.232193,132.517181 
	C34.075928,134.656982 34.539131,135.831711 34.883606,137.507202 
	C34.847645,137.674942 34.811680,137.842667 34.303932,138.252472 
	C34.115715,142.558289 35.988384,144.816895 40.478458,145.031204 
	C44.077991,145.203003 47.359539,144.894882 50.011154,142.385117 
	C50.011154,142.385117 50.075272,142.783249 49.885315,143.399429 
	C50.474220,144.521927 51.063129,145.644409 51.652035,146.766907 
	C52.786701,146.154999 53.921368,145.543076 55.771732,144.951782 
	C56.486687,144.952942 57.201637,144.954117 58.836288,144.973465 
	C61.296825,144.944962 63.757366,144.916458 66.714073,144.710236 
	C67.372078,144.439331 68.030083,144.168427 69.436325,143.861816 
	C70.294556,143.120071 71.152786,142.378326 72.616943,141.662369 
	C73.012550,141.742935 73.408157,141.823502 74.398048,142.377823 
	C80.312683,145.501663 86.344482,145.409088 92.511658,143.163467 
	C93.329620,142.865631 94.385651,143.035828 95.292297,143.202347 
	C97.973282,143.694672 100.624886,144.710892 103.305527,144.773727 
	C111.686470,144.970184 120.076202,144.751465 128.461075,144.836807 
	C132.893814,144.881897 137.343323,145.312607 140.998306,142.669693 
	C140.999756,143.109390 141.001205,143.549072 141.361984,144.285751 
	C141.918152,144.179123 142.474319,144.072495 143.643539,144.095215 
M81.781334,82.666420 
	C80.805336,84.111488 79.829346,85.556557 79.038925,87.166977 
	C79.038925,87.166977 78.667702,87.177528 78.667702,87.177528 
	C78.667702,87.177528 78.937782,87.011597 79.737175,86.844810 
	C82.151634,86.787369 84.199722,87.311569 85.515251,90.312195 
	C85.942650,90.730850 86.764015,91.188194 86.727379,91.561279 
	C86.589043,92.969856 86.171928,94.351051 85.859161,95.742500 
	C87.398125,95.185570 88.930046,94.607727 90.480484,94.084824 
	C90.927696,93.933998 91.428200,93.941223 91.294518,94.612434 
	C90.413963,95.996132 89.533417,97.379837 88.562790,98.905083 
	C89.628510,99.302193 89.925583,99.487015 90.233231,99.506714 
	C90.542137,99.526520 90.931580,99.473839 91.166069,99.295547 
	C95.722229,95.831444 100.551346,95.014595 105.945648,97.315498 
	C106.699310,97.636971 108.067558,96.517593 109.793297,96.004768 
	C112.079185,95.591522 115.658669,96.524857 114.734100,91.751862 
	C115.777618,91.751862 116.821136,91.751862 118.545647,91.751862 
	C117.362206,89.913940 116.570496,88.684402 115.367233,86.815697 
	C117.897064,87.756401 119.606476,88.392029 121.315887,89.027664 
	C121.540672,88.677811 121.765450,88.327957 121.990234,87.978104 
	C120.708664,85.968018 119.427101,83.957932 118.613655,81.425346 
	C119.564323,78.179077 120.775909,74.975517 121.318123,71.662399 
	C121.497643,70.565445 119.953484,69.186386 119.051674,67.198914 
	C119.289238,62.180996 115.818825,63.648582 113.128120,63.133545 
	C113.632446,62.276344 114.136772,61.419147 114.641106,60.561951 
	C113.701019,60.264133 112.758980,59.972282 111.821510,59.666447 
	C111.174095,59.455238 110.532990,59.224712 110.018433,58.551151 
	C108.652870,58.612526 107.287300,58.673901 105.236031,58.847664 
	C104.158089,59.244125 103.080147,59.640583 101.207321,59.922577 
	C97.343193,58.887150 93.479057,57.851719 89.304253,56.733036 
	C89.683640,57.760117 90.097458,58.880390 90.242836,60.789589 
	C88.763046,60.518257 87.283264,60.246922 85.571701,59.933090 
	C85.571701,61.512413 85.571701,62.794319 84.794876,63.962177 
	C78.370827,61.950748 84.040390,66.877258 82.630051,67.753891 
	C81.238487,67.506279 79.846924,67.258675 78.455360,67.011070 
	C78.241486,67.367989 78.027603,67.724907 77.813728,68.081833 
	C79.187660,69.776505 80.561600,71.471176 81.995689,73.517036 
	C81.995689,73.517036 82.089058,73.860886 81.774834,74.562737 
	C81.182999,76.939934 80.591164,79.317123 79.993103,81.719307 
	C80.681793,81.822380 81.318520,81.917671 81.781334,82.666420 
z"/>
<path fill="#1B1E39" opacity="1.000000" stroke="none" 
	d="
M51.983856,108.735947 
	C53.655304,107.574188 55.314312,105.436752 57.000298,105.415260 
	C65.447273,105.307571 73.916092,105.537575 82.345444,106.113976 
	C85.636200,106.339005 88.826454,107.853477 92.097725,108.632736 
	C93.400642,108.943123 95.212212,109.452408 96.087013,108.848907 
	C101.980576,104.783104 105.065750,105.091255 109.934166,110.623680 
	C110.331390,111.075073 110.985519,111.300400 111.550720,111.649582 
	C112.809395,109.614677 113.717094,106.415321 115.137505,106.168678 
	C119.789780,105.360840 124.631165,105.454002 129.394882,105.526672 
	C134.619873,105.606400 139.872726,106.543495 145.052002,106.194687 
	C150.399460,105.834564 155.119904,107.151299 157.699570,111.518074 
	C158.369217,112.651657 158.007751,114.394379 158.184433,116.699020 
	C163.059006,118.427063 160.545700,123.431396 160.731674,125.831139 
	C156.128128,130.053833 152.420654,133.454605 148.776291,136.797470 
	C154.493042,137.249176 159.992905,137.538269 165.441864,138.228912 
	C166.625290,138.378922 167.626221,139.968857 168.711197,140.895584 
	C168.557541,141.341064 168.403900,141.786560 168.250244,142.232040 
	C161.081284,143.144073 153.912308,144.056122 146.361694,144.578552 
	C144.397522,141.787125 142.815002,139.385269 141.232498,136.983429 
	C140.870819,137.238800 140.509140,137.494171 140.147461,137.749542 
	C140.428513,139.169815 140.709549,140.590073 140.990601,142.010345 
	C137.343323,145.312607 132.893814,144.881897 128.461075,144.836807 
	C120.076202,144.751465 111.686470,144.970184 103.305527,144.773727 
	C100.624886,144.710892 97.973282,143.694672 95.292297,143.202347 
	C94.385651,143.035828 93.329620,142.865631 92.511658,143.163467 
	C86.344482,145.409088 80.312683,145.501663 74.156624,141.855164 
	C74.232338,140.879669 74.549484,140.426849 75.116997,139.979843 
	C75.534279,139.989594 75.701195,139.993530 75.920395,140.232605 
	C75.972687,140.467773 76.158783,140.912186 76.171661,140.923767 
	C76.184540,140.935349 76.262497,141.133667 76.563133,141.053970 
	C77.428383,140.546585 77.992989,140.118896 78.557602,139.691208 
	C78.035294,139.432297 77.512985,139.173386 76.986176,138.533264 
	C75.771523,136.154465 74.974968,133.635101 73.259354,132.275192 
	C70.299599,129.929123 66.968658,128.354324 65.809189,124.129692 
	C65.425201,122.730606 62.618626,121.996407 60.960014,120.521751 
	C60.052307,119.384842 59.152328,118.175308 58.147118,118.080406 
	C55.252792,117.807144 52.315975,117.983955 49.178299,117.983955 
	C49.178299,116.163597 49.178299,114.783081 49.178299,113.485001 
	C54.178036,112.939796 58.963306,112.417976 63.876640,111.820244 
	C64.173584,111.442825 64.105782,111.197609 63.652016,110.637283 
	C59.663113,109.755898 55.823486,109.245918 51.983856,108.735947 
M133.022919,121.695534 
	C133.016693,122.730186 133.010452,123.764832 132.387299,125.059227 
	C131.667984,126.095032 130.948654,127.130836 130.029694,128.454132 
	C136.379517,131.331772 142.426163,132.688736 148.825699,130.826492 
	C155.250961,128.956757 156.786774,125.291061 153.818680,118.251328 
	C153.489792,116.368446 153.160919,114.485565 152.910019,111.882683 
	C147.617416,107.518501 138.726730,107.566574 130.578094,112.367516 
	C130.380157,112.627640 130.209763,112.904709 129.782135,113.842575 
	C127.473984,116.823662 129.905594,117.837730 132.070038,119.563568 
	C132.388977,120.015579 132.707916,120.467590 133.022919,121.695534 
M105.635712,111.753464 
	C103.574600,110.582573 101.513489,109.411674 98.257103,107.561752 
	C98.257103,115.664650 98.136963,121.951164 98.357162,128.225739 
	C98.401886,129.500214 99.729599,130.729675 100.465843,131.979889 
	C101.306595,130.633377 102.741371,129.342041 102.872589,127.929604 
	C103.215446,124.239105 102.988098,120.495636 102.988098,115.793472 
	C106.045174,118.508446 108.222321,120.441963 110.794662,122.726440 
	C113.289162,120.614662 115.727768,118.550201 118.932053,115.837547 
	C118.932053,120.446594 118.746674,124.199623 119.050026,127.912727 
	C119.136078,128.966003 120.647118,129.902878 121.504662,130.893143 
	C122.271301,129.872787 123.665298,128.874039 123.701286,127.828545 
	C123.911812,121.711723 123.804573,115.583961 123.804573,109.437614 
	C116.708450,107.260498 115.507927,114.778946 109.391914,117.020271 
	C108.596947,115.837997 107.396301,114.052406 105.635712,111.753464 
M86.009941,113.109581 
	C87.469368,112.918968 88.928802,112.728363 90.388229,112.537758 
	C83.787704,107.165047 74.734566,108.348763 70.888496,113.613670 
	C67.615852,118.093582 68.450630,124.890167 72.715042,128.484924 
	C77.785347,132.759033 86.848457,132.700165 92.311211,127.305588 
	C89.862244,127.075188 88.301392,126.555946 86.929337,126.867683 
	C82.453842,127.884544 77.970428,128.007965 75.148399,124.066971 
	C73.899475,122.322838 73.708527,118.703461 74.668129,116.727234 
	C76.691795,112.559639 81.052330,112.611511 86.009941,113.109581 
M100.194550,135.297928 
	C101.106689,136.035034 101.981506,137.339157 102.938026,137.402115 
	C105.719345,137.585175 108.542595,137.371506 111.331215,137.115356 
	C113.071571,136.955521 114.779007,136.437256 116.501213,136.079834 
	C115.752991,134.351196 115.004761,132.622574 113.916443,130.108215 
	C113.585213,130.702896 113.830437,130.289658 114.050209,129.863327 
	C114.937988,128.141113 115.874222,126.437386 116.590981,124.646172 
	C116.646721,124.506874 115.109055,123.293968 114.372704,123.351906 
	C111.701965,123.562050 110.502838,124.978401 110.304962,127.909042 
	C110.218292,129.192642 108.123466,130.515717 106.712830,131.491837 
	C104.830002,132.794708 102.725533,133.777267 100.194550,135.297928 
M94.678703,114.179153 
	C93.782227,115.520615 92.885742,116.862076 92.034569,118.135757 
	C87.394997,119.722168 80.857765,111.602936 77.087189,122.263138 
	C83.572487,122.263138 89.273964,122.263138 95.784966,122.263138 
	C95.647346,120.254883 95.436646,117.179977 94.678703,114.179153 
M93.236458,131.674820 
	C92.874428,132.589386 92.512398,133.503967 92.150375,134.418533 
	C93.198143,134.313873 94.245918,134.209198 95.293686,134.104538 
	C94.811356,133.223236 94.329025,132.341949 93.236458,131.674820 
M127.412247,111.298805 
	C127.753761,110.566811 128.095291,109.834816 128.436798,109.102821 
	C128.018646,109.024567 127.600487,108.946312 127.182343,108.868057 
	C127.083618,109.649261 126.984886,110.430458 127.412247,111.298805 
z"/>
<path fill="#0F1E37" opacity="1.000000" stroke="none" 
	d="
M60.919678,120.958221 
	C62.618626,121.996407 65.425201,122.730606 65.809189,124.129692 
	C66.968658,128.354324 70.299599,129.929123 73.259354,132.275192 
	C74.974968,133.635101 75.771523,136.154465 76.787102,138.701004 
	C76.351059,139.499115 76.109581,139.748291 75.868103,139.997452 
	C75.701195,139.993530 75.534279,139.989594 75.013412,139.684540 
	C73.776649,140.134460 72.893829,140.885513 72.011017,141.636566 
	C71.152786,142.378326 70.294556,143.120071 69.019432,143.602905 
	C67.871620,142.762085 67.140701,142.180191 66.324203,141.427612 
	C66.238625,141.256912 65.975311,140.974564 65.906128,140.658661 
	C65.272682,140.083878 64.708427,139.824982 64.144165,139.566101 
	C64.498642,140.516403 64.853127,141.466721 65.274765,142.498001 
	C65.341919,142.578979 65.600357,142.614777 65.600357,142.614777 
	C65.600357,142.614777 65.845406,142.516357 65.894974,142.814514 
	C66.035660,143.704437 66.126785,144.296188 66.217903,144.887955 
	C63.757366,144.916458 61.296825,144.944962 58.293121,144.691467 
	C56.851978,144.583359 55.954002,144.757263 55.056030,144.931152 
	C53.921368,145.543076 52.786701,146.154999 51.652035,146.766907 
	C51.063129,145.644409 50.474220,144.521927 50.180267,143.017548 
	C50.718140,142.480988 50.933270,142.294266 51.333778,142.194336 
	C52.123451,142.518539 52.699944,142.723892 53.276432,142.929245 
	C53.365498,142.691986 53.454559,142.454727 53.543621,142.217468 
	C52.740215,141.800552 51.936806,141.383621 51.047043,140.755951 
	C50.605522,141.029694 50.250351,141.514206 49.895180,141.998703 
	C47.359539,144.894882 44.077991,145.203003 40.478458,145.031204 
	C35.988384,144.816895 34.115715,142.558289 34.710407,138.287247 
	C35.478271,138.294678 35.839664,138.267334 36.201050,138.239990 
	C35.801476,137.828812 35.401905,137.417633 35.002335,137.006439 
	C34.539131,135.831711 34.075928,134.656982 33.232193,132.517181 
	C36.233349,132.320267 38.702763,132.158234 41.822529,132.099121 
	C43.647747,132.786316 44.822613,133.370605 46.066292,134.202408 
	C46.777485,134.598419 47.419857,134.746918 48.498177,134.899628 
	C52.725769,134.813461 56.534595,134.914001 60.303856,134.574829 
	C63.559509,134.281860 65.804764,132.842514 64.052322,128.727112 
	C64.002319,128.486649 64.044937,127.997292 64.154968,127.886383 
	C64.123680,127.619331 63.982349,127.463188 63.536652,127.235336 
	C62.825077,127.075531 62.417873,126.987450 61.893749,126.582397 
	C61.185020,124.572708 60.593216,122.880005 60.227852,121.117485 
	C60.454292,121.047676 60.919682,120.958214 60.919678,120.958221 
M61.362232,138.204086 
	C61.086380,138.315506 60.810528,138.426926 60.534679,138.538345 
	C60.905548,138.558838 61.276413,138.579315 61.362232,138.204086 
z"/>
<path fill="#D5B3D5" opacity="1.000000" stroke="none" 
	d="
M60.960014,120.521744 
	C60.919682,120.958214 60.454292,121.047676 59.897270,121.037323 
	C58.891491,121.069237 58.442730,121.111496 57.541481,121.091454 
	C54.509926,121.029152 51.930859,121.029152 49.327766,121.029152 
	C49.327766,123.338181 49.327766,125.178352 49.327766,126.971664 
	C53.135303,126.971664 56.563934,126.971664 60.230942,127.084106 
	C60.631432,127.264328 60.793541,127.332108 60.848351,127.676392 
	C60.162502,128.973679 59.583954,129.994446 58.541409,131.074707 
	C53.800934,131.134201 49.524460,131.134201 44.664875,131.134201 
	C44.664875,124.908775 44.930882,119.124809 44.568764,113.380440 
	C44.338013,109.719879 45.859127,108.669998 49.039696,108.775238 
	C49.779442,108.816795 50.519188,108.858345 51.621395,108.817917 
	C55.823486,109.245918 59.663113,109.755898 63.566315,110.854843 
	C63.629890,111.443810 63.748577,111.896156 63.748577,111.896156 
	C58.963306,112.417976 54.178036,112.939796 49.178299,113.485001 
	C49.178299,114.783081 49.178299,116.163597 49.178299,117.983955 
	C52.315975,117.983955 55.252792,117.807144 58.147118,118.080406 
	C59.152328,118.175308 60.052307,119.384842 60.960014,120.521744 
z"/>
<path fill="#9993A1" opacity="1.000000" stroke="none" 
	d="
M109.151306,96.065201 
	C108.067558,96.517593 106.699310,97.636971 105.945648,97.315498 
	C100.551346,95.014595 95.722229,95.831444 91.166069,99.295547 
	C90.931580,99.473839 90.542137,99.526520 90.233231,99.506714 
	C89.925583,99.487015 89.628510,99.302193 88.562790,98.905083 
	C89.533417,97.379837 90.413963,95.996132 91.754654,94.145767 
	C94.548386,90.406845 96.256783,87.251793 91.374031,84.559647 
	C90.659561,84.165710 90.432335,82.888062 89.988251,82.011215 
	C89.996841,82.003105 89.984177,82.008698 89.984161,81.755531 
	C89.981506,81.333603 89.978882,81.164841 89.985168,80.994537 
	C89.994072,80.992989 89.981194,80.978065 90.281494,80.855057 
	C91.764168,80.812828 93.006905,80.691078 94.114876,81.021393 
	C95.818565,81.529305 97.429695,82.347656 99.087006,83.477219 
	C99.111214,84.510849 99.128517,85.101532 98.880692,85.857101 
	C97.008034,89.857788 100.292595,88.330765 102.121887,88.870026 
	C103.349449,88.926239 104.167992,88.959854 104.995461,89.330154 
	C106.386688,91.799629 107.768997,93.932411 109.151306,96.065201 
z"/>
<path fill="#CCADCA" opacity="1.000000" stroke="none" 
	d="
M109.889061,59.002823 
	C110.532990,59.224712 111.174095,59.455238 111.821510,59.666447 
	C112.758980,59.972282 113.701019,60.264133 114.641098,60.561951 
	C114.136772,61.419147 113.632446,62.276344 112.924957,63.693733 
	C112.169571,65.487282 111.617340,66.720642 111.034317,67.983307 
	C111.003510,68.012611 110.947899,68.076935 110.581802,68.070374 
	C109.483864,68.037712 108.752037,68.011612 108.090126,67.747696 
	C107.863976,66.901558 107.567902,66.293236 107.271828,65.684906 
	C106.867905,65.917053 106.463989,66.149208 106.060066,66.381363 
	C106.702629,66.924683 107.345192,67.468002 107.910759,68.345428 
	C106.332428,70.237389 104.831078,71.795242 103.686737,72.982658 
	C106.101967,74.200050 107.831078,75.071609 109.726692,76.248810 
	C110.040154,76.733711 110.187119,76.912956 110.296654,77.412033 
	C110.153725,78.146812 110.048225,78.561783 109.622177,79.020874 
	C106.518295,79.859520 103.812180,76.183250 100.746216,78.726028 
	C99.672920,78.343002 98.848671,78.155464 98.149384,77.737839 
	C98.210663,76.358757 98.146957,75.209755 98.311050,73.995155 
	C99.255836,71.947701 99.972839,69.965851 100.924377,67.746933 
	C101.440109,66.680367 101.721306,65.850868 102.353973,64.890686 
	C103.201492,64.015770 103.697533,63.271534 104.193565,62.527298 
	C103.464989,62.339165 102.736420,62.151031 102.002640,61.641937 
	C101.999023,60.892998 102.000618,60.465019 102.002213,60.037045 
	C103.080147,59.640583 104.158089,59.244125 105.788048,59.000538 
	C107.523064,59.103214 108.706062,59.053020 109.889061,59.002823 
z"/>
<path fill="#B59EB5" opacity="1.000000" stroke="none" 
	d="
M98.083252,74.060760 
	C98.146957,75.209755 98.210663,76.358757 97.730713,77.751877 
	C95.793617,78.004112 94.400169,78.012207 92.971802,77.849304 
	C92.627899,77.730629 92.318916,77.782936 91.671318,77.828400 
	C90.881325,77.832573 90.429939,77.843597 89.943214,77.525970 
	C88.959732,76.465073 88.011589,75.732826 86.838364,74.780121 
	C85.105209,74.326744 83.597137,74.093811 82.089058,73.860886 
	C82.089058,73.860886 81.995689,73.517036 82.042023,72.990189 
	C83.740616,70.170097 85.392876,67.876854 87.094391,65.033684 
	C86.570740,64.311287 85.997818,64.138817 85.457909,63.998753 
	C85.490913,64.031158 85.571701,64.076225 85.571701,64.076225 
	C85.571701,62.794319 85.571701,61.512413 85.571701,59.933090 
	C87.283264,60.246922 88.763046,60.518257 90.658737,60.537453 
	C92.415558,60.868443 93.756485,61.451565 95.177505,62.387260 
	C97.505905,63.500343 99.754204,64.260857 102.002502,65.021370 
	C101.721306,65.850868 101.440109,66.680367 100.684509,67.677094 
	C95.736359,65.502098 92.273193,67.711372 88.823074,69.979401 
	C88.741165,70.536903 88.659256,71.094406 88.577347,71.651909 
	C91.745979,72.454857 94.914619,73.257812 98.083252,74.060760 
z"/>
<path fill="#2C2946" opacity="1.000000" stroke="none" 
	d="
M48.920189,108.481644 
	C45.859127,108.669998 44.338013,109.719879 44.568764,113.380440 
	C44.930882,119.124809 44.664875,124.908775 44.664875,131.134201 
	C49.524460,131.134201 53.800934,131.134201 58.941353,131.160370 
	C61.237640,130.446899 62.669987,129.707245 64.102333,128.967590 
	C65.804764,132.842514 63.559509,134.281860 60.303856,134.574829 
	C56.534595,134.914001 52.725769,134.813461 48.268730,134.726685 
	C47.068058,134.351334 46.532768,134.153107 45.997482,133.954895 
	C44.822613,133.370605 43.647747,132.786316 42.253288,132.097778 
	C42.063564,124.888313 41.854633,117.770813 42.218559,110.682732 
	C42.416695,106.823624 45.239227,105.957253 48.920189,108.481644 
z"/>
<path fill="#968C9B" opacity="1.000000" stroke="none" 
	d="
M100.995262,78.921509 
	C103.812180,76.183250 106.518295,79.859520 109.859680,79.269028 
	C112.993652,80.297997 115.569595,81.122925 118.145531,81.947853 
	C119.427101,83.957932 120.708664,85.968018 121.990234,87.978104 
	C121.765450,88.327957 121.540672,88.677811 121.315887,89.027664 
	C119.606476,88.392029 117.897064,87.756401 115.367233,86.815697 
	C116.570496,88.684402 117.362206,89.913940 118.545647,91.751862 
	C116.821136,91.751862 115.777618,91.751862 114.382690,91.876900 
	C114.031288,92.001938 114.002968,92.051056 114.047821,91.743675 
	C113.724533,91.252312 113.356400,91.068329 112.751198,90.706963 
	C111.657829,90.051331 110.801514,89.573074 109.968491,88.818085 
	C110.402939,87.455070 110.814102,86.368797 111.750542,83.894775 
	C109.423706,84.926323 108.212219,85.463409 107.000366,86.000252 
	C107.000000,86.000000 107.000511,86.000725 106.698563,86.116707 
	C105.934425,87.138718 105.472229,88.044746 105.005493,88.962128 
	C105.000954,88.973488 104.986542,88.993469 104.986542,88.993469 
	C104.167992,88.959854 103.349449,88.926239 102.194519,88.556694 
	C101.854950,87.580475 101.851761,86.940178 101.973755,86.037727 
	C103.246864,84.943558 104.394783,84.111549 106.415405,82.646996 
	C104.760330,82.031052 103.393463,81.522362 101.897354,80.752899 
	C101.510498,79.968590 101.252884,79.445045 100.995262,78.921509 
z"/>
<path fill="#C5A2C6" opacity="1.000000" stroke="none" 
	d="
M109.560188,75.943161 
	C107.831078,75.071609 106.101967,74.200050 103.686737,72.982658 
	C104.831078,71.795242 106.332428,70.237389 107.918243,68.338837 
	C108.002708,67.998138 108.020203,67.985504 108.020203,67.985504 
	C108.752037,68.011612 109.483864,68.037712 110.630310,68.123390 
	C111.044922,68.182968 111.246658,68.157028 111.246658,68.157028 
	C111.246658,68.157028 111.065109,67.953995 111.065109,67.953995 
	C111.617340,66.720642 112.169571,65.487282 112.912079,64.025703 
	C115.818825,63.648582 119.289238,62.180996 118.935226,67.920456 
	C118.359573,70.930298 117.900383,73.218590 117.732208,74.056641 
	C115.244278,74.764206 114.132950,74.953735 113.139488,75.403557 
	C112.369507,75.752182 111.746849,76.426186 110.888878,76.689621 
	C110.332764,76.263512 109.946472,76.103340 109.560188,75.943161 
z"/>
<path fill="#493551" opacity="1.000000" stroke="none" 
	d="
M111.058708,76.955559 
	C111.746849,76.426186 112.369507,75.752182 113.139488,75.403557 
	C114.132950,74.953735 115.244278,74.764206 117.732208,74.056641 
	C117.900383,73.218590 118.359573,70.930298 119.008087,68.289154 
	C119.953484,69.186386 121.497643,70.565445 121.318123,71.662399 
	C120.775909,74.975517 119.564323,78.179077 118.379593,81.686600 
	C115.569595,81.122925 112.993652,80.297997 110.180222,79.224915 
	C110.048225,78.561783 110.153725,78.146812 110.483658,77.408920 
	C110.708099,77.085983 111.058708,76.955559 111.058708,76.955559 
z"/>
<path fill="#9A8F9F" opacity="1.000000" stroke="none" 
	d="
M89.979652,82.019318 
	C90.432335,82.888062 90.659561,84.165710 91.374031,84.559647 
	C96.256783,87.251793 94.548386,90.406845 92.059540,93.777542 
	C91.428200,93.941223 90.927696,93.933998 90.480484,94.084824 
	C88.930046,94.607727 87.398125,95.185570 85.859161,95.742500 
	C86.171928,94.351051 86.589043,92.969856 86.727379,91.561279 
	C86.764015,91.188194 85.942650,90.730850 85.499069,90.048325 
	C86.981804,87.196075 88.480728,84.607697 89.979652,82.019318 
z"/>
<path fill="#A49BAA" opacity="1.000000" stroke="none" 
	d="
M89.988251,82.011215 
	C88.480728,84.607697 86.981804,87.196075 85.164062,89.923416 
	C84.199722,87.311569 82.151634,86.787369 79.319717,86.913597 
	C78.902252,86.982384 78.853355,87.001625 78.853355,87.001625 
	C79.829346,85.556557 80.805336,84.111488 82.058472,82.107048 
	C85.132614,82.896973 86.877197,82.241341 87.567383,78.973694 
	C88.519363,78.946999 89.152191,78.915588 89.822449,79.232819 
	C89.900322,80.047005 89.940758,80.512535 89.981194,80.978065 
	C89.981194,80.978065 89.994072,80.992989 89.893127,81.108665 
	C89.676613,81.521606 89.740608,81.783058 89.984177,82.008698 
	C89.984177,82.008698 89.996841,82.003105 89.988251,82.011215 
z"/>
<path fill="#443A4D" opacity="1.000000" stroke="none" 
	d="
M87.248230,78.968987 
	C86.877197,82.241341 85.132614,82.896973 82.145432,81.780319 
	C81.318520,81.917671 80.681793,81.822380 79.993103,81.719307 
	C80.591164,79.317123 81.182999,76.939934 81.931946,74.211807 
	C83.597137,74.093811 85.105209,74.326744 86.822174,75.177704 
	C87.103447,76.853493 87.175835,77.911240 87.248230,78.968987 
z"/>
<path fill="#9D93A3" opacity="1.000000" stroke="none" 
	d="
M109.945206,89.094833 
	C110.801514,89.573074 111.657829,90.051331 112.509445,90.893585 
	C113.004166,91.522079 113.503571,91.786568 114.002968,92.051056 
	C114.002968,92.051056 114.031288,92.001938 114.005203,91.992813 
	C115.658669,96.524857 112.079185,95.591522 109.472305,96.034988 
	C107.768997,93.932411 106.386688,91.799629 104.995461,89.330154 
	C104.986542,88.993469 105.000954,88.973488 105.326157,88.962784 
	C107.082649,88.999664 108.513924,89.047249 109.945206,89.094833 
z"/>
<path fill="#B2A0B7" opacity="1.000000" stroke="none" 
	d="
M87.045135,65.583611 
	C85.392876,67.876854 83.740616,70.170097 82.011948,72.814598 
	C80.561600,71.471176 79.187660,69.776505 77.813728,68.081833 
	C78.027603,67.724907 78.241486,67.367989 78.455360,67.011070 
	C79.846924,67.258675 81.238487,67.506279 82.628677,67.747223 
	C84.040390,66.877258 78.370827,61.950748 85.183289,64.019203 
	C85.571701,64.076225 85.490913,64.031158 85.607452,64.368492 
	C86.164368,64.998421 86.604744,65.291016 87.045135,65.583611 
z"/>
<path fill="#B0A4BA" opacity="1.000000" stroke="none" 
	d="
M95.097404,62.034691 
	C93.756485,61.451565 92.415558,60.868443 90.792953,60.142990 
	C90.097458,58.880390 89.683640,57.760117 89.304253,56.733036 
	C93.479057,57.851719 97.343193,58.887150 101.604767,59.979813 
	C102.000618,60.465019 101.999023,60.892998 101.583069,61.761311 
	C99.144943,62.145996 97.121178,62.090343 95.097404,62.034691 
z"/>
<path fill="#1F2641" opacity="1.000000" stroke="none" 
	d="
M140.994446,142.340027 
	C140.709549,140.590073 140.428513,139.169815 140.147461,137.749542 
	C140.509140,137.494171 140.870819,137.238800 141.232498,136.983429 
	C142.815002,139.385269 144.397522,141.787125 145.981506,144.581177 
	C145.203156,144.680664 144.423355,144.387939 143.364288,143.788025 
	C143.085022,142.932205 143.085022,142.383575 143.085022,141.150711 
	C142.096695,142.497696 141.549683,143.243225 141.002655,143.988770 
	C141.001205,143.549072 140.999756,143.109390 140.994446,142.340027 
z"/>
<path fill="#B0A4BA" opacity="1.000000" stroke="none" 
	d="
M109.953751,58.776985 
	C108.706062,59.053020 107.523064,59.103214 106.130905,58.944344 
	C107.287300,58.673901 108.652870,58.612526 109.953751,58.776985 
z"/>
<path fill="#413B59" opacity="1.000000" stroke="none" 
	d="
M66.409790,141.598297 
	C67.140701,142.180191 67.871620,142.762085 68.645309,143.620758 
	C68.030083,144.168427 67.372078,144.439331 66.465988,144.799103 
	C66.126785,144.296188 66.035660,143.704437 66.013977,142.570221 
	C66.192200,141.884613 66.300995,141.741455 66.409790,141.598297 
z"/>
<path fill="#666B85" opacity="1.000000" stroke="none" 
	d="
M72.313980,141.649475 
	C72.893829,140.885513 73.776649,140.134460 74.763046,139.678711 
	C74.549484,140.426849 74.232338,140.879669 73.859482,141.618271 
	C73.408157,141.823502 73.012550,141.742935 72.313980,141.649475 
z"/>
<path fill="#1B1E39" opacity="1.000000" stroke="none" 
	d="
M141.182312,144.137268 
	C141.549683,143.243225 142.096695,142.497696 143.085022,141.150711 
	C143.085022,142.383575 143.085022,142.932205 143.057755,143.723343 
	C142.474319,144.072495 141.918152,144.179123 141.182312,144.137268 
z"/>
<path fill="#1F2641" opacity="1.000000" stroke="none" 
	d="
M55.413879,144.941467 
	C55.954002,144.757263 56.851978,144.583359 57.833271,144.682373 
	C57.201637,144.954117 56.486687,144.952942 55.413879,144.941467 
z"/>
<path fill="#4B526D" opacity="1.000000" stroke="none" 
	d="
M51.120602,142.075516 
	C50.933270,142.294266 50.718140,142.480988 50.275246,142.709473 
	C50.075272,142.783249 50.011154,142.385117 49.953167,142.191910 
	C50.250351,141.514206 50.605522,141.029694 51.036907,141.033112 
	C51.115616,141.705841 51.118111,141.890671 51.120602,142.075516 
z"/>
<path fill="#484764" opacity="1.000000" stroke="none" 
	d="
M34.942970,137.256821 
	C35.401905,137.417633 35.801476,137.828812 36.201050,138.239990 
	C35.839664,138.267334 35.478271,138.294678 34.946297,138.166214 
	C34.811680,137.842667 34.847645,137.674942 34.942970,137.256821 
z"/>
<path fill="#A49BAA" opacity="1.000000" stroke="none" 
	d="
M78.920013,86.996994 
	C78.937782,87.011597 78.667702,87.177528 78.667702,87.177528 
	C78.667702,87.177528 79.038925,87.166977 78.946136,87.084305 
	C78.853355,87.001625 78.902252,86.982384 78.920013,86.996994 
z"/>
<path fill="#CEA8CC" opacity="1.000000" stroke="none" 
	d="
M105.915680,112.010132 
	C107.396301,114.052406 108.596947,115.837997 109.391914,117.020271 
	C115.507927,114.778946 116.708450,107.260498 123.804573,109.437614 
	C123.804573,115.583961 123.911812,121.711723 123.701286,127.828545 
	C123.665298,128.874039 122.271301,129.872787 121.504654,130.893127 
	C120.647118,129.902878 119.136078,128.966003 119.050026,127.912727 
	C118.746674,124.199623 118.932053,120.446594 118.932053,115.837547 
	C115.727768,118.550201 113.289162,120.614662 110.794662,122.726440 
	C108.222321,120.441963 106.045174,118.508446 102.988098,115.793472 
	C102.988098,120.495636 103.215446,124.239105 102.872589,127.929604 
	C102.741371,129.342041 101.306595,130.633377 100.465843,131.979889 
	C99.729599,130.729675 98.401886,129.500214 98.357162,128.225739 
	C98.136963,121.951164 98.257103,115.664650 98.257103,107.561752 
	C101.513489,109.411674 103.574600,110.582573 105.915680,112.010132 
z"/>
<path fill="#CAADCF" opacity="1.000000" stroke="none" 
	d="
M85.582886,113.048965 
	C81.052330,112.611511 76.691795,112.559639 74.668129,116.727234 
	C73.708527,118.703461 73.899475,122.322838 75.148399,124.066971 
	C77.970428,128.007965 82.453842,127.884544 86.929337,126.867683 
	C88.301392,126.555946 89.862244,127.075188 92.311211,127.305588 
	C86.848457,132.700165 77.785347,132.759033 72.715042,128.484924 
	C68.450630,124.890167 67.615852,118.093582 70.888496,113.613670 
	C74.734566,108.348763 83.787704,107.165047 90.388229,112.537758 
	C88.928802,112.728363 87.469368,112.918968 85.582886,113.048965 
z"/>
<path fill="#CAAACD" opacity="1.000000" stroke="none" 
	d="
M153.965073,119.047226 
	C156.786774,125.291061 155.250961,128.956757 148.825699,130.826492 
	C142.426163,132.688736 136.379517,131.331772 130.029694,128.454132 
	C130.948654,127.130836 131.667984,126.095032 133.013153,125.139374 
	C138.252777,125.821053 142.856155,126.630882 147.488434,126.862396 
	C148.512802,126.913589 149.639389,124.919273 150.718918,123.866844 
	C149.415878,123.101173 148.153381,121.779099 146.801743,121.680649 
	C143.556717,121.444275 140.269867,121.782257 137.145630,121.590584 
	C137.526337,120.224907 137.761322,119.157120 138.422272,118.052025 
	C143.937637,117.619774 149.122864,115.822578 153.965073,119.047226 
z"/>
<path fill="#0F2037" opacity="1.000000" stroke="none" 
	d="
M100.455399,135.097656 
	C102.725533,133.777267 104.830002,132.794708 106.712830,131.491837 
	C108.123466,130.515717 110.218292,129.192642 110.304962,127.909042 
	C110.502838,124.978401 111.701965,123.562050 114.372704,123.351906 
	C115.109055,123.293968 116.646721,124.506874 116.590981,124.646172 
	C115.874222,126.437386 114.937988,128.141113 114.050209,129.863327 
	C113.830437,130.289658 113.585213,130.702896 113.916443,130.108215 
	C115.004761,132.622574 115.752991,134.351196 116.501213,136.079834 
	C114.779007,136.437256 113.071571,136.955521 111.331215,137.115356 
	C108.542595,137.371506 105.719345,137.585175 102.938026,137.402115 
	C101.981506,137.339157 101.106689,136.035034 100.455399,135.097656 
z"/>
<path fill="#C4A8C8" opacity="1.000000" stroke="none" 
	d="
M130.902267,112.001671 
	C138.726730,107.566574 147.617416,107.518501 152.532654,112.459122 
	C148.527878,112.969231 144.900391,112.848076 141.273102,112.854317 
	C138.487549,112.859108 135.770538,113.112305 135.591980,117.011818 
	C134.149475,117.695251 133.040222,118.357826 131.930954,119.020386 
	C129.905594,117.837730 127.473984,116.823662 130.181259,113.409889 
	C130.687683,112.652031 130.794983,112.326851 130.902267,112.001671 
z"/>
<path fill="#12213A" opacity="1.000000" stroke="none" 
	d="
M94.952316,114.142113 
	C95.436646,117.179977 95.647346,120.254883 95.784966,122.263138 
	C89.273964,122.263138 83.572487,122.263138 77.087189,122.263138 
	C80.857765,111.602936 87.394997,119.722168 92.034569,118.135757 
	C92.885742,116.862076 93.782227,115.520615 94.952316,114.142113 
z"/>
<path fill="#2B213E" opacity="1.000000" stroke="none" 
	d="
M136.999893,121.888481 
	C140.269867,121.782257 143.556717,121.444275 146.801743,121.680649 
	C148.153381,121.779099 149.415878,123.101173 150.718918,123.866844 
	C149.639389,124.919273 148.512802,126.913589 147.488434,126.862396 
	C142.856155,126.630882 138.252777,125.821053 133.321594,125.009499 
	C133.010452,123.764832 133.016693,122.730186 133.370667,121.368294 
	C134.812256,121.323532 135.906067,121.606003 136.999893,121.888481 
z"/>
<path fill="#2A1F3B" opacity="1.000000" stroke="none" 
	d="
M135.925232,116.990959 
	C135.770538,113.112305 138.487549,112.859108 141.273102,112.854317 
	C144.900391,112.848076 148.527878,112.969231 152.493668,112.819122 
	C153.160919,114.485565 153.489792,116.368446 153.891876,118.649277 
	C149.122864,115.822578 143.937637,117.619774 138.135391,117.942947 
	C136.923462,117.577766 136.424347,117.284363 135.925232,116.990959 
z"/>
<path fill="#DFB9E0" opacity="1.000000" stroke="none" 
	d="
M135.591980,117.011818 
	C136.424347,117.284363 136.923462,117.577766 137.709442,117.980255 
	C137.761322,119.157120 137.526337,120.224907 137.145630,121.590584 
	C135.906067,121.606003 134.812256,121.323532 133.372650,120.980324 
	C132.707916,120.467590 132.388977,120.015579 132.000488,119.291977 
	C133.040222,118.357826 134.149475,117.695251 135.591980,117.011818 
z"/>
<path fill="#0F2037" opacity="1.000000" stroke="none" 
	d="
M93.541573,131.567734 
	C94.329025,132.341949 94.811356,133.223236 95.293686,134.104538 
	C94.245918,134.209198 93.198143,134.313873 92.150375,134.418533 
	C92.512398,133.503967 92.874428,132.589386 93.541573,131.567734 
z"/>
<path fill="#101E38" opacity="1.000000" stroke="none" 
	d="
M127.149200,111.255234 
	C126.984886,110.430458 127.083618,109.649261 127.182343,108.868057 
	C127.600487,108.946312 128.018646,109.024567 128.436798,109.102821 
	C128.095291,109.834816 127.753761,110.566811 127.149200,111.255234 
z"/>
<path fill="#636782" opacity="1.000000" stroke="none" 
	d="
M75.920395,140.232605 
	C76.109581,139.748291 76.351059,139.499115 76.791611,139.082214 
	C77.512985,139.173386 78.035294,139.432297 78.557602,139.691208 
	C77.992989,140.118896 77.428383,140.546585 76.487579,141.024689 
	C76.111382,141.075104 76.158783,140.912186 76.158783,140.912186 
	C76.158783,140.912186 75.972687,140.467773 75.920395,140.232605 
z"/>
<path fill="#0F1E37" opacity="1.000000" stroke="none" 
	d="
M76.171661,140.923767 
	C76.158783,140.912186 76.111382,141.075104 76.186935,141.104385 
	C76.262497,141.133667 76.184540,140.935349 76.171661,140.923767 
z"/>
<path fill="#101E38" opacity="1.000000" stroke="none" 
	d="
M130.740173,112.184593 
	C130.794983,112.326851 130.687683,112.652031 130.323669,113.087967 
	C130.209763,112.904709 130.380157,112.627640 130.740173,112.184593 
z"/>
<path fill="#2C2946" opacity="1.000000" stroke="none" 
	d="
M63.876640,111.820244 
	C63.748577,111.896156 63.629890,111.443810 63.715591,111.226242 
	C64.105782,111.197609 64.173584,111.442825 63.876640,111.820244 
z"/>
<path fill="#B39DBE" opacity="1.000000" stroke="none" 
	d="
M64.052322,128.727112 
	C62.669987,129.707245 61.237640,130.446899 59.405350,131.100891 
	C59.583954,129.994446 60.162502,128.973679 61.112537,127.552155 
	C61.659569,127.067390 61.835121,126.983376 62.010670,126.899368 
	C62.417873,126.987450 62.825077,127.075531 63.539375,127.422180 
	C63.846462,127.680740 64.044937,127.997292 64.044937,127.997292 
	C64.044937,127.997292 64.002319,128.486649 64.052322,128.727112 
z"/>
<path fill="#1B1E39" opacity="1.000000" stroke="none" 
	d="
M61.893749,126.582397 
	C61.835121,126.983376 61.659569,127.067390 61.219833,127.275642 
	C60.793541,127.332108 60.631432,127.264328 60.055962,126.826401 
	C59.093063,124.688766 58.543514,122.921265 57.993969,121.153763 
	C58.442730,121.111496 58.891491,121.069237 59.670830,121.107132 
	C60.593216,122.880005 61.185020,124.572708 61.893749,126.582397 
z"/>
<path fill="#1F2641" opacity="1.000000" stroke="none" 
	d="
M51.333778,142.194336 
	C51.118111,141.890671 51.115616,141.705841 51.123260,141.243866 
	C51.936806,141.383621 52.740215,141.800552 53.543621,142.217468 
	C53.454559,142.454727 53.365498,142.691986 53.276432,142.929245 
	C52.699944,142.723892 52.123451,142.518539 51.333778,142.194336 
z"/>
<path fill="#676281" opacity="1.000000" stroke="none" 
	d="
M65.207603,142.417023 
	C64.853127,141.466721 64.498642,140.516403 64.144165,139.566101 
	C64.708427,139.824982 65.272682,140.083878 65.592804,140.954651 
	C65.301636,141.850021 65.254616,142.133530 65.207603,142.417023 
z"/>
<path fill="#101E38" opacity="1.000000" stroke="none" 
	d="
M46.066296,134.202408 
	C46.532768,134.153107 47.068058,134.351334 47.832787,134.722473 
	C47.419857,134.746918 46.777485,134.598419 46.066296,134.202408 
z"/>
<path fill="#636782" opacity="1.000000" stroke="none" 
	d="
M61.504757,138.401947 
	C61.276413,138.579315 60.905548,138.558838 60.534676,138.538330 
	C60.810528,138.426926 61.086380,138.315506 61.504757,138.401947 
z"/>
<path fill="#1B1E39" opacity="1.000000" stroke="none" 
	d="
M64.154968,127.886383 
	C64.044937,127.997292 63.846462,127.680740 63.843742,127.493896 
	C63.982349,127.463188 64.123680,127.619331 64.154968,127.886383 
z"/>
<path fill="#413B59" opacity="1.000000" stroke="none" 
	d="
M65.274765,142.498001 
	C65.254616,142.133530 65.301636,141.850021 65.661987,141.270538 
	C65.975311,140.974564 66.238625,141.256912 66.324203,141.427612 
	C66.300995,141.741455 66.192200,141.884613 65.964409,142.272064 
	C65.845406,142.516357 65.600357,142.614777 65.600357,142.614777 
	C65.600357,142.614777 65.341919,142.578979 65.274765,142.498001 
z"/>
<path fill="#1E1834" opacity="1.000000" stroke="none" 
	d="
M57.541481,121.091461 
	C58.543514,122.921265 59.093063,124.688766 59.817589,126.713966 
	C56.563934,126.971664 53.135303,126.971664 49.327766,126.971664 
	C49.327766,125.178352 49.327766,123.338181 49.327766,121.029152 
	C51.930859,121.029152 54.509926,121.029152 57.541481,121.091461 
z"/>
<path fill="#9A8F9F" opacity="1.000000" stroke="none" 
	d="
M90.281494,80.855057 
	C89.940758,80.512535 89.900322,80.047005 89.871704,78.975876 
	C89.915199,78.198395 89.946877,78.026512 89.978554,77.854622 
	C90.429939,77.843597 90.881325,77.832573 91.918030,77.888168 
	C92.671127,77.976608 92.838921,77.998451 93.006721,78.020302 
	C94.400169,78.012207 95.793617,78.004112 97.605743,77.981964 
	C98.848671,78.155464 99.672920,78.343002 100.746216,78.726028 
	C101.252884,79.445045 101.510498,79.968590 101.685791,80.965652 
	C100.762344,81.970886 99.921227,82.502586 99.080101,83.034286 
	C97.429695,82.347656 95.818565,81.529305 94.114876,81.021393 
	C93.006905,80.691078 91.764168,80.812828 90.281494,80.855057 
M98.499115,80.472603 
	C98.499115,80.472603 98.513916,80.513039 98.499115,80.472603 
z"/>
<path fill="#938797" opacity="1.000000" stroke="none" 
	d="
M99.087006,83.477219 
	C99.921227,82.502586 100.762344,81.970886 101.815033,81.226425 
	C103.393463,81.522362 104.760330,82.031052 106.415405,82.646996 
	C104.394783,84.111549 103.246864,84.943558 101.711479,85.945267 
	C100.597946,85.974052 99.871887,85.833138 99.145828,85.692223 
	C99.128517,85.101532 99.111214,84.510849 99.087006,83.477219 
z"/>
<path fill="#383845" opacity="1.000000" stroke="none" 
	d="
M98.880692,85.857101 
	C99.871887,85.833138 100.597946,85.974052 101.586288,86.207428 
	C101.851761,86.940178 101.854950,87.580475 101.785507,88.534088 
	C100.292595,88.330765 97.008034,89.857788 98.880692,85.857101 
z"/>
<path fill="#9A8F9F" opacity="1.000000" stroke="none" 
	d="
M89.984161,81.755531 
	C89.740608,81.783058 89.676613,81.521606 89.884216,81.110214 
	C89.978882,81.164841 89.981506,81.333603 89.984161,81.755531 
z"/>
<path fill="#B094AE" opacity="1.000000" stroke="none" 
	d="
M98.311050,73.995155 
	C94.914619,73.257812 91.745979,72.454857 88.577347,71.651909 
	C88.659256,71.094406 88.741165,70.536903 88.823074,69.979401 
	C92.273193,67.711372 95.736359,65.502098 100.449966,67.914169 
	C99.972839,69.965851 99.255836,71.947701 98.311050,73.995155 
z"/>
<path fill="#4C3950" opacity="1.000000" stroke="none" 
	d="
M95.177505,62.387260 
	C97.121178,62.090343 99.144943,62.145996 101.588280,62.082275 
	C102.736420,62.151031 103.464989,62.339165 104.193565,62.527298 
	C103.697533,63.271534 103.201492,64.015770 102.353973,64.890686 
	C99.754204,64.260857 97.505905,63.500343 95.177505,62.387260 
z"/>
<path fill="#C5A2C6" opacity="1.000000" stroke="none" 
	d="
M107.995224,68.004730 
	C107.345192,67.468002 106.702629,66.924683 106.060066,66.381363 
	C106.463989,66.149208 106.867905,65.917053 107.271828,65.684906 
	C107.567902,66.293236 107.863976,66.901558 108.090126,67.747696 
	C108.020203,67.985504 108.002708,67.998138 107.995224,68.004730 
z"/>
<path fill="#6E536C" opacity="1.000000" stroke="none" 
	d="
M110.888878,76.689621 
	C111.058708,76.955559 110.708099,77.085983 110.521095,77.089096 
	C110.187119,76.912956 110.040154,76.733711 109.726692,76.248810 
	C109.946472,76.103340 110.332764,76.263512 110.888878,76.689621 
z"/>
<path fill="#B2A0B7" opacity="1.000000" stroke="none" 
	d="
M89.943214,77.525970 
	C89.946877,78.026512 89.915199,78.198395 89.834274,78.627220 
	C89.152191,78.915588 88.519363,78.946999 87.567383,78.973694 
	C87.175835,77.911240 87.103447,76.853493 87.047249,75.398163 
	C88.011589,75.732826 88.959732,76.465073 89.943214,77.525970 
z"/>
<path fill="#B2A0B7" opacity="1.000000" stroke="none" 
	d="
M92.971802,77.849304 
	C92.838921,77.998451 92.671127,77.976608 92.256638,77.895004 
	C92.318916,77.782936 92.627899,77.730629 92.971802,77.849304 
z"/>
<path fill="#101E38" opacity="1.000000" stroke="none" 
	d="
M87.094391,65.033684 
	C86.604744,65.291016 86.164368,64.998421 85.574448,64.336090 
	C85.997818,64.138817 86.570740,64.311287 87.094391,65.033684 
z"/>
<path fill="#938797" opacity="1.000000" stroke="none" 
	d="
M109.968491,88.818085 
	C108.513924,89.047249 107.082649,88.999664 105.330704,88.951431 
	C105.472229,88.044746 105.934425,87.138718 106.729126,86.170967 
	C107.061623,86.109245 107.000732,86.000496 107.000732,86.000504 
	C108.212219,85.463409 109.423706,84.926323 111.750542,83.894775 
	C110.814102,86.368797 110.402939,87.455070 109.968491,88.818085 
z"/>
<path fill="#101E38" opacity="1.000000" stroke="none" 
	d="
M114.047821,91.743675 
	C113.503571,91.786568 113.004166,91.522079 112.746506,91.070969 
	C113.356400,91.068329 113.724533,91.252312 114.047821,91.743675 
z"/>
<path fill="#CCADCA" opacity="1.000000" stroke="none" 
	d="
M111.034309,67.983307 
	C111.065109,67.953995 111.246658,68.157028 111.246658,68.157028 
	C111.246658,68.157028 111.044922,68.182968 110.996414,68.129951 
	C110.947899,68.076935 111.003510,68.012611 111.034309,67.983307 
z"/>
<path fill="#9993A1" opacity="1.000000" stroke="none" 
	d="
M98.506516,80.492821 
	C98.513916,80.513039 98.499115,80.472603 98.506516,80.492821 
z"/>
<path fill="#9D93A3" opacity="1.000000" stroke="none" 
	d="
M107.000366,86.000244 
	C107.000732,86.000496 107.061623,86.109245 107.031067,86.054985 
	C107.000511,86.000725 107.000000,86.000000 107.000366,86.000244 
z"/>
</svg>